<?xml version="1.0" encoding="utf-8"?>
<!-- Generator: Adobe Illustrator 13.0.0, SVG Export Plug-In . SVG Version: 6.00 Build 14948)  -->
<!DOCTYPE svg PUBLIC "-//W3C//DTD SVG 1.1//EN" "http://www.w3.org/Graphics/SVG/1.1/DTD/svg11.dtd">
<svg version="1.1" id="Layer_1" xmlns="http://www.w3.org/2000/svg" xmlns:xlink="http://www.w3.org/1999/xlink" x="0px" y="0px"
	 width="44px" height="44.031px" viewBox="0 0 44 44.031" enable-background="new 0 0 44 44.031" xml:space="preserve">
<path fill="#FFFFFF" d="M21.848,22.112c-0.184-0.182-0.186-0.478-0.002-0.661l0,0l7.566-7.645c0.182-0.183,0.477-0.185,0.66-0.003
	l0,0c0.182,0.183,0.184,0.479,0.004,0.662l0,0l-7.566,7.646c-0.091,0.09-0.211,0.137-0.332,0.137l0,0
	C22.059,22.248,21.939,22.203,21.848,22.112L21.848,22.112z"/>
<path fill="#FFFFFF" d="M29.592,30.001l-7.722-7.878c-0.181-0.185-0.179-0.48,0.007-0.661l0,0c0.186-0.182,0.48-0.179,0.662,0.005
	l0,0l7.721,7.881c0.182,0.185,0.178,0.479-0.008,0.66l0,0c-0.092,0.09-0.207,0.133-0.326,0.133l0,0
	C29.805,30.141,29.684,30.095,29.592,30.001L29.592,30.001z"/>
<path fill="#FFFFFF" d="M22.502,22.112c0.189-0.182,0.191-0.478,0.003-0.661l0,0l-7.879-7.645c-0.188-0.183-0.496-0.185-0.688-0.003
	l0,0c-0.188,0.183-0.19,0.479-0.002,0.662l0,0l7.877,7.646c0.096,0.09,0.221,0.137,0.347,0.137l0,0
	C22.282,22.248,22.406,22.203,22.502,22.112L22.502,22.112z"/>
<path fill="#FFFFFF" d="M14.438,30.001l8.041-7.878c0.188-0.185,0.186-0.48-0.008-0.661l0,0c-0.19-0.182-0.5-0.179-0.688,0.005l0,0
	l-8.038,7.881c-0.188,0.185-0.188,0.479,0.008,0.66l0,0c0.097,0.09,0.216,0.133,0.34,0.133l0,0
	C14.217,30.141,14.343,30.095,14.438,30.001L14.438,30.001z"/>
</svg>
